<?xml version="1.0" encoding="utf-8"?>
<!-- Generator: Adobe Illustrator 26.0.3, SVG Export Plug-In . SVG Version: 6.00 Build 0)  -->
<svg version="1.0" id="katman_1" xmlns="http://www.w3.org/2000/svg" xmlns:xlink="http://www.w3.org/1999/xlink" x="0px" y="0px"
	 viewBox="0 0 600 450" style="enable-background:new 0 0 600 450;" xml:space="preserve">
<style type="text/css">
	.st0{fill:#010202;}
</style>
<path class="st0" d="M293.1,48.4c1.3,0.7,1.8,1.2,3.2,1.5c1.2,0.3,2.8,1.2,3.2,0.2c0.5-1-0.2-2.3-1-3.5c-1.3-2.2-2-2.7-3.8-5.6
	c-0.3-0.7-0.7-1.3-1.3-1.3c0,0-0.2,2.2-0.8,3.5c-0.5,1.2-1.8,2-1.7,2.8C290.9,46.8,291.7,47.8,293.1,48.4z"/>
<path class="st0" d="M431.7,190.5c-1.5,2-2.2,6-4.3,9.3c-3,4.6-7.3,10.3-9.5,10.3c-1.2,0-1.5-2.7-1.5-2.7s-1.5-4.5,1-10.1
	c1.8-4,2.8-5.1,5.1-8.1c2.2-2.8,3.5-4.3,5-7.3c1.3-2.7,1.7-3.2,2.5-7.3c0.2-1-0.2-3.2-1.2-3c-1.3,0-5,8-8.8,12.4
	c-3.6,4.1-10.4,9.5-10.4,9.5s-0.7,0.5-0.7-0.8c-0.2-1.2-0.3-4.6,0.3-7.8c0.7-3.2,1.7-6.3,4.5-11.1c3.2-5.5,7.1-9.3,9.1-11.3
	c0.8-0.8,3.3-2.3,2-3.2c-1.2-0.7-4.6,2.3-7.3,4.3c-3.3,2.5-4.5,3.2-7.8,7.1s-4.1,5.6-4.1,5.6s-3.2,5.1-4,10.1s-0.8,7.8-0.8,7.8
	s0,4.5,0.5,7.1c0.3,2.8,1.5,7.1,1.5,7.1s1.7,4.8,2.3,7.8c0.7,3,1.8,11.8,1.8,11.8s0.8,6.3,0.3,12.3c-0.5,6-1,9.5-1.7,11.3
	c-0.7,1.8-2.5,6.6-5.5,9.9c-2.8,3.2-3.5,3.6-3.5,3.6s-3,2.5-5.5,3.8c-2.5,1.3-6.1,3-7.8,3.5c-1.7,0.3-4,0.5-4.1,0.5h-2.2l-0.7-0.5
	l-0.3-1.3c0,0-1.7-6.5-3.6-10.6c-1.7-3.5-5.1-8.3-5.1-8.3s-6-8.1-10.6-12.6c-5.3-5.3-11.3-9.3-14.9-12.1c-1.3-1-4.3-2.8-4.3-2.8
	s-12.1-12.1-16.4-21.7c-3-6.6-5-11.4-4.1-18.7c0.2-1.7,0.8-4.8,1.2-4.8l2.2,0.7c0.2,0.2,2.2,2,4,2.7c1,0.3,2.8,0.7,2.8,0.7
	s1.5,0.2,2.3,0.3c0.8,0.3,2.3,0.8,3.3,1.3c1,0.5,2.5,1.5,2.5,1.5l2.8,2.2l3,2.3c0,0,1.7,1.2,2.2,1.3c0.5,0.2,0.8,0.3,1,0.3h0.7
	c0,0,0.7-0.2,0.8-0.8c0.2-0.8-0.8-0.2-2.3-1.8c-1.7-1.5-2.3-2.8-2.3-2.8s-0.3-1.3-1.7-2.8c-1.3-1.5-3-2.8-3-2.8s-1.2-0.8-2.8-1.3
	c-1.7-0.5-2.2-0.5-2.3-1.2c-0.2-0.7,2-0.3,2-0.3s2.5,0.3,4.5,1.3c2,1,3.2,2.2,3.2,2.2l1.3,1.2l0.8,0.8l0.8,0.5c0,0,0.8,0.8,1-0.3
	c0.2-1-0.2-1.8-0.3-2l-0.8-0.8l-3.3-2.8c-1-1-1.7-1.7-2.7-2.3s-2.5-1.7-4.3-2.3c-1.7-0.7-2.7-0.5-4.3-1.3c-1.2-0.5-2.2-0.8-2.8-1.8
	c-0.2-0.2-1-0.8,0.5-0.5c1.5,0.3,2.5,0.8,4.1,1.2c2.7,0.7,4.3,0.7,6.8,1.5c1,0.3,2.3,1,2.3,1l3.2,1.3c0,0,4.3,2.3,7.3,2.5
	s5.5-0.5,6.5-1c1-0.3,2.8-1.5,3.3-2c0.5-0.5,0.8-1,0.8-1l0.3-0.8v-0.7c-0.8-1-2.5,1.7-5.1,2.2c-2.8,0.5-2.7,0.8-4.5,0.5
	c-2-0.3-3.2-0.8-4.6-2.3c-2.7-2.5-3.6-4.8-7.1-6.3c-1.5-0.7-4.1-1.3-4.1-1.3s-3.6-1.2-5.6-2.3c-1.5-0.8-4.6-1.3-3.6-2.7
	c0.5-0.7,4.5,1.7,7.5,2c2.2,0.3,3.6,0.2,5.3,0.2s4-0.5,4.3-0.5c0.3-0.2,1.7,0,2.8,0.3c1.2,0.3,1.8,0.8,3,1.3
	c1.2,0.5,2.5,1.3,2.8,1.3l0.7,0.2l0.3-0.3l0.2-0.3l-0.2-0.3l-0.5-0.3l-1-0.7c0,0-1.5-0.8-2.8-2.2c-1.3-1.3-2.5-2.8-4.5-3.5
	s-4.3-1-4.3-1l-2.3-0.2l-1-0.2c0,0-1.7-0.5-0.3-0.8c1.3-0.3,2-0.5,2.3-0.5c0.2-0.2,2.5-0.3,3.8,0.2s3.5,1.7,3.6,1.7
	c0.2,0.2,2.2,1.7,4.3,2.2c2.2,0.5,5,0.7,5,0.7l1.3-0.3l0.7-0.2l0.5-0.3l-0.2-0.8c0,0,0-0.7-1-0.8s-3-0.5-4.8-1.8
	c-1.8-1.3-3.2-2.7-3.2-2.7s-1.3-1.2-4-1.8c-2.5-0.7-3.3-0.7-3.3-0.7l-0.8-0.3l-1.8-0.8c0,0-0.8-0.5-1.5-1.3s-1.7-2.3,1.2-1.5
	s3.5,1.3,3.5,1.3s1.5,1.5,2.8,1.7c0.8,0.2,1.5,0.3,2-0.3c0.8-0.8-1.5-1.8-3.2-3c-1.3-0.8-2.7-3-2.7-3s-1-0.8,0.5-0.5
	c1.5,0.3,4.1,2,4.1,2s1.3,0.7,2,0.8c0.5,0.2,1.8,1,2.5,1.3c0.5,0.2,2,0.5,3,1c1.3,0.8,2,2.2,2.7,2.7c0.7,0.5,1.2,1.3,2,1.5
	c0.8,0.2,1,0.5,1.5,0.2c0.5-0.3,0.7-0.5,0.7-0.5s0.2-0.3-0.7-0.8c-0.8-0.5-1.8-1.8-1.8-1.8l-0.3-0.7l-0.2-0.7l-0.8-1.3l-1.5-2.2
	c0,0-2.3-3.2-4.5-4.3c-2-1.2-3.5-1.8-3.5-1.8s-1-0.5-1.5-0.8c-0.8-0.7-1.2-1.2-1.8-2c-0.8-1-1.2-1.7-2.2-2.7
	c-1.8-1.8-7.5-2.8-5.3-4.1c1.2-0.7,2.7-0.3,3.3-0.2c0.7,0.2,2.2,0.8,3.6,1.3c1,0.3,1.7,0.3,2.7,0.7c1,0.3,2.2,0.5,2.7,0.8
	s1,1,1.3,1.2c0.2,0.2,1.5,2.3,3.8,3.5c2.3,1.2,3.5,2,5.8,2.2c1.8,0.2,4.8-0.5,4.8-0.5s0.8-0.3,0.2-1.2c-0.8-0.8-0.8-1-1.5-1.2
	c-2.7-1-4.8-0.7-6.8-2.7c-0.8-0.8-1.2-1-1.8-2.3c-0.7-1.3-0.3-1.7-0.8-2.5c-0.3-0.8-1.2-2-1.2-2s-2.5-3-5.1-4.5
	c-2.8-1.5-4.8-3-5.1-3.3c-0.5-0.3-1.5-1.7-1.5-1.7l-0.8-1.3l-0.5-1c-0.3-1.8,3,0.5,4.8,1.2c3,1,4.5,2.3,7.5,3.3
	c1.7,0.5,2.7,0.5,4.3,1.2c2.8,1.2,3.6,4,6.6,4.3c1.7,0.2,5,0.8,4.3-0.7c-0.7-1.7-4-1.7-5.6-3.6c-0.8-0.8-0.8-1.7-1.7-2.5
	c-1.3-1.7-4.5-3.2-4.5-3.2s-1-0.8-2.2-3.2c-1-2.3-3.5-4-8-6.1c-3-1.5-9-1.8-6.6-3.3c1.3-1,2.5-0.8,4.3-0.3c1.8,0.7,2.5,1.5,4,2.2
	c1.5,0.7,2.2,0.8,2.5,1c0.3,0.2,1.5,0.7,2,0.7c0.3,0.2,2.8,0.5,3.5,0.7l3.3,0.8l2.7,1c0,0,1.3,0.5,2.2,0.5c0.8,0,2.2-0.3,2.2-0.3
	l1-0.7l0.2-0.3c0,0,0.5-0.8-0.8-1c-1.2-0.2-1.8-0.2-2-0.2l-1.2-0.3l-0.5-0.2c0,0-2.3-1.8-4.3-2.7c-2.2-0.8-2.5-1-2.5-1l-0.8-0.2
	l-1-0.2c0,0-0.8,0-2.2-1.2s-1.8-1.8-3-3l-1.5-1.5c0,0-1.3-1-1.3-1.8c0.2-1.3,3,1.5,3,1.5l2,1.3c0,0,1.7,1.2,4.6,1.3
	c3,0.2,6.6-0.8,6.6-0.8s0.5-0.3,2.2,0.2c1.7,0.5,3,1.5,3,1.5l1.3,1.2l2,2.2l0.3-0.2c0.2-0.2,1-1-0.5-2.8c-1.5-1.8-4-3.5-4-3.5
	s-3.3-2-6.6-2.7s-4.8-0.7-4.8-0.7s-2.5,0-4-1.7c-1.5-1.7-2.5-3.3-2.5-3.3l-0.5-2.3c0,0-0.8-1-2.5-1.7c-1.5-0.7-3.2-1.7-3.2-1.7
	s-2.5-0.8-2.7-2c-0.5-2.2,4.1,0,6.6,0.5c2.3,0.5,3.3,1.3,5.6,1.8c2,0.5,3.2,0.7,5.3,0.5c1.2,0,1.8-0.2,3-0.3c1.2,0,2-0.2,3.2,0
	c1.7,0.3,2.3,1.2,4,1.8c1,0.5,1.5,1,2.7,1.2c1,0.2,3,0.8,2.7-0.2l-0.5-0.7c-0.8-1.2-1.8-1.2-2.8-2c-2.2-1.7-3.2-3-5.6-4.1
	c-1.7-0.8-2.7-1.2-4.5-1.5c-1.3-0.2-2.3,0.2-3.6-0.2c-1.5-0.5-2-1.2-3.5-2c-2.3-1.3-3.6-2.5-6.1-3.5c-1.7-0.7-4.5-1.3-4.5-1.3
	l-1.2-0.2l-0.5-0.2c-2.3-0.8,4.1-2.7,7.1-3.5c1.5-0.3,2.2-0.7,3.6-0.5c1.3,0.2,2.8,2,4.3,1.2c2.2-1.2-2.5-4.3-4-4.8
	c-2-0.8-5.5-0.2-5.5-0.2l-7.6-0.2l-2.2-0.3c0,0-1.3,0-2.3-1.2c-1-1.2-4.8-5.8-9.1-6.5c-4.5-0.7-5.8,0-6.1-0.3
	c-3.8-6-7.8-7.3-10.8-10.1c-0.8-0.8-2.2-2.7-2.5-2.5c-0.3,0.2-0.8,2.7-1.7,4.8c-1,2.5-0.3,3.6,0.2,4.6c0.7,1,1.5,1.7-0.2,2.7
	s-3.8,0.7-3.8,0.7s-1.8-0.3-3.3-1.2c-1.5-0.7-4.6-2-4.6-2s-3-0.8-5-0.7c-2,0.2-2.2,0.3-3.6,0.5c-0.8,0-1.2,0-2,0.2
	c-0.7,0.2-1.5-0.3-1.5,0.5c0,0.8,1.7,0.8,2.8,1.3s3.8,0.5,3.3,1.2c-0.7,0.7-3.2,0.8-3.3,0.7c-0.2,0-1.8-0.3-3.2-0.3
	c-2.2,0.2-2.3,0.2-5.5,1.7c-0.5,0.2-0.3,1.3,0.7,1c1.2-0.3,2.8-0.7,4.6-0.7c2,0,3.2,0.7,5.1,1.2c1.7,0.5,1.8,0.8,4.3,1.2
	c0.5,0,1.5-0.3,1.5,0.3c0,0.3-0.7,0.8-0.7,0.8s-1.5,0.3-1.3,0.8c0.3,0.7,1.7,0,2.3,0c0.7,0,1.7,0.2,1.5,0.8l-0.3,0.5
	c-1.8,0.5-2.8,0.8-4.5,1.5c-4.1,1.7-5.8,3.6-9.8,5.6c-3.8,1.8-9.9,4.1-9.9,4.1s-1.8,1-4.5,1.7c-2.7,0.7-2.8,0.5-4.6,0.8
	c-1.8,0.2-2.7,0.5-4.1,1.3c-1,0.5-1.5,1-2.3,1.8l-2.3,3.5l-1.3,2c-0.3,0.7-0.7,1-0.8,1.7c-0.3,0.8-0.5,1.2-0.7,2
	c-0.5,2,0,3.2,0.3,5.1c0.2,0.5,0.2,0.8,0.3,1.3c0.2,0.5,0.8,1,0.8,1l0.7,0.2c0,0,2.3-0.2,3.8-0.5c1.5-0.3,3.6-0.8,3.6-0.8l2.8-0.8
	l1.8-0.7c0,0,1.2,0,1.3,0.7c0.2,0.5-0.3,1.3-0.3,1.3s-1,0.5-1.8,0.8c-0.8,0.3-2.8,0.8-3,1l-2.2,0.7l-1.8,0.2c0,0-0.3,0.2-0.7,0.7
	c-0.3,0.5-0.3,0.5-0.3,0.8c0.3,0.3,0.5,0.7,0.8,1c0.7,0.5,1,0.8,1.8,1c1.2,0.5,1.8,0.3,3,0.3c1.7,0,2.7-0.3,4.1-1
	c1.3-0.8,1.8-0.8,3.6-1.5c0.5-0.2,1.5-0.3,1.8-0.3c3.2-0.3,5,0.2,8.1,0.7c3.2,0.5,4.6,1.5,7.8,2c3.3,0.5,5.3,1.5,8.8,0.7
	c1.7-0.3,2.7-1.2,3.5,0.5c0.8,1.5,0.7,2.3,0.7,2.3s0,1-1.2,4.1c-1.2,3.2-4.8,10.9-4.8,10.9l-2.5,5c0,0-2,4-6.6,9.1
	c-4.6,5.1-5,5.5-5,5.5s-2.5,1.8-5,5c-2.5,3.2-2.5,4.3-4.8,6.6c-1.5,1.5-2.3,2.3-4.1,3.5c-1.8,1.2-4,0.8-9.8,4.8
	c-5,3.5-7.6,6.3-8,6.1c-0.3-0.2-2-1.5-2.7-1.8c-0.5-0.3-10.1-6.8-10.1-6.8l-4-2.7l-1.8-1.2l-0.3-0.7l-1-1.3c0,0-1.5-1.8-3.3-3.3
	c-1.8-1.7-3.8-3-6.8-3.6c-2.8-0.8-4.6-1.3-7.5-0.3c-1.8,0.7-2.8,1.3-4.1,2.7c-1.7,1.7-2,3-3.3,5c-1.3,2-2.7,3.8-3.3,4.8
	c-0.7,1-2,3.6-2,3.6s-3.3,5.3-5.1,8.8c-2.2,3.8-3,6.1-5,9.8c-3.2,5.8-7.6,11.8-8.8,14.4c-1.2,2.7-1.3,3-1.3,3s-0.3,1.5-0.5,2.5
	c-0.2,1-0.2,2.7-0.3,3.3c-0.2,0.8-0.7,1.7-0.8,1.8c-0.2,0.2-2,4-2.7,6.5c-0.7,2.5-2.2,10.3-0.3,11.3c1.8,1,15.3-4.8,17.1-10.4
	c1.2-3.6-3.6-5.5-2.3-8.8c0.5-1.2,0.8-1.3,1.7-2.5c1.3-2.2,0.8-6.6,3.3-10.8c1.8-3,5.5-6.8,10.4-12.4c3.2-3.5,6.1-9.1,6.1-9.1
	s0.7-2,2-1.7c1.5,0.3,2.8,0.2,2.8,0.2l0.7,0.5l1.3,1.3l2,3c0,0,3.3,4.8,4.5,6.1c1.2,1.3,2.3,2.3,4,3.6c1.8,1.7,2.5,2.5,4.8,4.3
	c3.3,2.7,2.2,3.6-2.2,1.3c-1.5-0.8-3.8-1.7-5.6-2.2c-2-0.5-9.5-2.5-13.3-3c-3.6-0.5-4.3-0.3-4.3-0.3s-1.8-0.2-4,1.2
	c-2.2,1.3-3.3,2.3-3.3,2.3s-2.5,2.8-2.7,3.3c-0.2,0.5-1.3,2.5-1.3,2.5s-0.7,1-0.8,2.2c-0.3,1.2-0.2,2.3-0.2,2.3l0.2,2.5l0.2,2.3
	c0,0,0.5,5.8,1.7,11.6c0.3,1.7,0.7,4.3,0.7,4.3l0.8,6c0,0,0.5,6.3,1,8.5c0.5,2,0.8,2.2,1.2,3.5c0.7,2.5-0.5,3.6,0.7,6.6
	c1.2,3,2.2,2.7,3.3,4.5c0.8,1.3,1.2,1.7,1.8,3.3c0.7,1.7,2.8,7.1,5.3,11.1c2.7,4.1,6.1,9.3,8.5,8.8c2.3-0.5,4-4.1,4-4.1
	s2.7-7.1,1-14.1c-1.7-7.1-9.3-3.8-10.3-9c-0.2-1.2,0-3,0-3s-0.2-2.2-0.5-2.8c-0.3-0.7-3-5.6-4-9.8c-0.8-3.2-0.7-13.3-1.3-16.1
	c-1.8-7.3-2-6.6-1-8c1.2-1.3,2.2-1,2.2-1l1.5,0.2l1.2,0.5c0,0,1.3,0.8,2.2,1.3c0.7,0.5,3,2.3,3,2.3l5.6,3.6c0,0,3.2,1.8,4.5,2.5
	c1.3,0.7,2.5,1.5,2.5,1.5l1.5,1l2.5,1.8l0.5,0.5l0.3,0.7c0,0,1.2,2.7,6.1,5.5c4,2.3,7.5,1.7,9,3.5c0.3,0.3,3.2,4.1,4.5,6.5
	c1.7,2.7,3.6,5.8,4.3,6.8c0.7,1,4.8,6.1,4.8,6.1l5.5,6l7.1,6.6l6.5,5.5l4.1,3.3c0,0,3.6,3.5,7.8,6.3c4,2.7,4.1,3,6.8,4.8
	c2,1.3,4.6,3.2,7.3,5.1c2.7,2.2,5.6,6.1,4.5,7.5c-0.8,0.5-2.3-1.7-5.1-4.1c-2.3-2-3.5-3-5.8-4.6c-3-2.3-4.5-3.5-7.8-5.5
	c-1.7-1-4.6-2.8-4.8-2.5c-1.2,3.5-1,6.8-0.8,11.1c0.2,3,0.7,6,1.7,9.8c0.8,3.6,1.7,5.6,3,9.1c1.3,3.5,3.8,9,3.8,9l3.8,7.6l3.5,5.8
	l1.8,3l0.7,1c0,0,0.8,2,0,3.3c-0.8,1.3-1.8,4.1-3.3,4.3c-1.5,0.3-5,0.5-5,0.5l-19.7-0.3l-10.3-0.8c0,0-1.2-0.7-7.1-0.7
	c-3.5,0-6.3,1.5-8.3,1.7c-1.7,0.2-9.8-0.5-15.3,1.7c-5.1,2.2-7.5,2.7-9.3,6c-1.3,2.5,6.5,6.5,12.9,8c10.4,2.3,7.5-2.2,11.4-5
	c0.5-0.3,0.7-0.7,1.2-0.8c2.7-0.8,4.1,1.3,6.8,1.3c3,0,4.6-1,7.6-1.5c15.1-2,38.6,5.1,38.6,5.1s5.8,1.8,8.5,1.3
	c3.2-0.7,2.5-1.8,3.5-3.6c0.8-1.5,0.5-1.8,0.7-3.5c0-1-0.2-1.5-0.3-2.5c-0.7-2.8-2.5-6.8-2.5-6.8s-1.3-3-1.8-4.5
	c-0.7-2.2-1.3-3.5-1.7-5.8c-1-6.1-0.8-5.6-0.8-9.1c0-6.3,0.7-9.8,2.3-15.9c2.5-9,7.1-12.8,10.6-21.4c1-2.3,1-5.6,2.2-6
	c1.3-0.2,1.2,4.1,0.5,6.6c-2.2,8.6-7.5,12.3-9.9,21.1c-1.8,6.8-2.8,10.8-2.3,17.7c0.2,3.8,1.7,9.8,1.7,9.8s2,6.6,3,9.1
	c1,2.5,3,6.6,3,6.6l4.5,8l2.3,3.8c0,0,1.7,1.5,0.8,4c-0.8,2.5-2.5,4-4.5,6.1c-5.6,6.6-18.7,16.4-22.1,18.7c-4.6,3.5-4.5,4.5-4.8,5.5
	c-1.8,5.3-7.1,5.5-12.9,11.8c-1.3,1.3-4.8,5-4.1,8.1c0.3,1.2,14.6,3.6,22.9,0.2c6.5-2.8,0.8-6,2.7-9.1c1.3-2.3,4.6-2.3,6.1-4.3
	c2.5-3.3,0.8-3.2,3-5.8c7.1-8.6,11.8-13.6,24.5-21.4c1.2-0.7,3.3-1.7,3.3-1.7s1.8-0.8,2.5-1.8c0.8-1.3,0.7-2.5,0.7-4
	c0-1-0.2-1.5-0.2-2.5c0-1.2,0.2-1.8-0.2-3c-0.3-1.8-1.5-3.3-2.2-4.3c-0.7-0.8-1.8-2.3-2.5-5.5c-0.8-3.2-0.8-5.8,0.5-9.3
	c1.3-3.5,4.3-6.3,4.3-6.3l7.5-5c0,0,6.5-4.6,8.5-6.5c2.2-1.8,6.3-5.6,9.3-9.9c3.5-4.8,5.3-7.8,6.8-13.6c0.5-2.2,1-5.5,1-5.5
	s0-2.3,1.3-2.5c1.3-0.2,1.7,0.3,1.7,0.3s1.2,0.7,1.5,4c0.2,3.3-0.8,7.1-0.8,7.1s-1,3.8-1.3,6.1c-0.2,1.5-0.2,2.3-0.2,4
	c0,2.8,1.2,5.1,1.2,5.1s0.7,0.5,0.7-0.7c0-1.3,0.3-3.3,0.8-5.3c0.5-1.7,0.8-1.3,1.8-4.1c1.3-3.6,0.2-3.3,0.8-5.5c0.3-1,1.2-2,2.2-2
	c1,0,1.2,1.3,1.2,1.3s1,4.3,0.2,8.3c-0.8,4-3.8,9.5-3.8,9.5l-2.3,4c0,0-1.7,2.8-2.3,4.6c-0.7,2-0.8,2.8-0.5,4.6c0.5,2,2,4.6,2.8,4.1
	c0.7-0.5-1-2.2,1-6.1c2-4,4.6-6.5,4.6-6.5s3.6-4.3,5.3-7.6c1.5-3,3-7.8,3-7.8s1.2-4.3,0.8-8c-0.2-3.5-0.8-5.3-0.8-5.3l-1.5-2.7
	l-0.8-2l0.3-1.2c0.3-0.2,1.5,0.7,2.5,2c1,1.3,2,3,2.5,5.3c0.5,1.7,0.7,3.2,0.7,4.6c0,1.3-0.5,6.8,1.5,10.3c0.8,1.7,2.8,5.5,3,3.8
	c0.3-3.8-1.3-5.6-1.2-9.1c0.2-4,1.2-3,1.5-5c0.3-2.2,0.8-2.7,0.5-5.5c-0.3-2.7-1.5-6.1-1.5-6.1l-1.2-2.7l-0.5-1c0,0,0.3-0.5,0.8-0.5
	l4-1.3c0,0,5.1-2.3,7.1-4c2.2-1.5,4.6-4.1,4.6-4.1s3.3-4.1,5-7.1c4-7.5,4-16.9,3.8-21.2c-0.2-4.1-1.3-9.6-1.3-9.6s-1.3-6.6-1-10.9
	c0.3-4.3,0.7-6.3,0.7-6.3s-0.2-4.3,3.5-9c3.6-4.6,5.3-7.6,6-11.1C434,193.5,433,188.7,431.7,190.5L431.7,190.5z M321.9,160.7
	c-0.5,0-1.2-0.7-1.2-0.7s-0.2-0.2,0.3-0.5c0.5-0.3,1.2-0.2,1.2-0.2l0.5,0.2l0.8,1.2C323.4,161.2,322.4,160.9,321.9,160.7z
	 M323.9,155.2c-0.5-0.2-1.3-0.7-1.3-0.7s-0.2-0.3,0.3-0.7c0.5-0.3,1.3-0.2,1.3-0.2l0.5,0.3c0.2,0.2,1,1,1,1.3
	C325.7,155.9,324.6,155.4,323.9,155.2z M325.7,149.6c-0.7-0.2-1.7-0.8-1.7-0.8s-0.2-0.3,0.5-0.7s1.7-0.2,1.7-0.2l0.7,0.3
	c0.3,0.3,1.2,1.2,1.2,1.7C327.9,150.4,326.4,149.7,325.7,149.6z M327.2,144.4c-0.7-0.2-1.7-0.8-1.7-0.8s-0.2-0.3,0.5-0.7
	s1.7-0.2,1.7-0.2l0.7,0.3c0.3,0.3,1.2,1.2,1.2,1.7C329.4,145.1,327.9,144.4,327.2,144.4z M328.7,138.3c-0.8-0.2-1.8-1-1.8-1
	s-0.2-0.3,0.5-0.8c0.7-0.5,1.8-0.2,1.8-0.2l0.7,0.3c0.3,0.3,1.3,1.3,1.3,1.8C331.2,139.1,329.4,138.3,328.7,138.3z M329.7,131.7
	c-1-0.2-2.3-1.2-2.3-1.2s-0.3-0.5,0.7-1c0.8-0.5,2.2-0.3,2.2-0.3l0.8,0.5c0.3,0.3,1.5,1.7,1.7,2.3
	C332.7,132.7,330.7,131.8,329.7,131.7z M330.4,125c-1.2-0.2-2.8-1.5-2.8-1.5s-0.3-0.5,0.7-1.2c1-0.7,2.7-0.3,2.7-0.3s0.5,0.2,1,0.5
	c0.5,0.5,1.8,2,2,2.8S331.5,125.2,330.4,125z M331.4,117.4c-1.3-0.2-3.2-1.7-3.2-1.7s-0.3-0.7,0.8-1.3c1.2-0.8,3-0.3,3-0.3
	s0.7,0.2,1.2,0.7c0.5,0.5,2.2,2.3,2.3,3.2C335.5,118.9,332.7,117.6,331.4,117.4z M330.7,86.6c-1-0.2-2.3-1.2-2.3-1.2
	s-0.3-0.3,0.7-0.8c1-0.5,2.3-0.2,2.3-0.2s0.5,0.2,0.8,0.5s1.7,1.5,1.7,2.2C333.8,87.6,331.7,86.7,330.7,86.6z M334.3,94
	c0.2,0.7-2.2-0.2-3.3-0.3c-1-0.2-2.5-1.3-2.5-1.3s-0.3-0.5,0.7-1c1-0.7,2.3-0.3,2.3-0.3s0.5,0.2,1,0.5C333,92,334.2,93.4,334.3,94z
	 M329.5,106.3c1-0.7,2.7-0.3,2.7-0.3s0.5,0.2,1,0.5c0.5,0.5,1.8,2,2,2.8s-2.3-0.2-3.5-0.5c-1.2-0.2-2.8-1.5-2.8-1.5
	S328.5,107,329.5,106.3z M331.7,100.7c-1.2-0.2-2.8-1.5-2.8-1.5s-0.3-0.5,0.7-1.2c1-0.7,2.7-0.3,2.7-0.3s0.5,0.2,1,0.5
	c0.5,0.5,1.8,2,2,2.8C335.3,102,332.9,101,331.7,100.7z M333.8,75.8c1.3,0.3,1.7,1.2,1,1.2c-0.7,0.2-1,0.2-1.5,0.2
	c-1.5,0-1.3-0.7-3.3,0.3c-2,1-0.5,0.5-3.3,1.5c-2.7,1-2-1.7-2-1.7s0.2-0.5,0.5-1.8c0.3-1.3,2,0,3.2,0
	C330.5,75.5,332.4,75.5,333.8,75.8z M326.4,65.5l0.8,0.5c0.3,0.3,1.5,1.7,1.7,2.3c0.2,0.7-2-0.2-2.8-0.3c-1-0.2-2.3-1.2-2.3-1.2
	s-0.3-0.5,0.7-1C325.2,65.2,326.4,65.5,326.4,65.5z M320.4,57.6c0.8-0.5,2.2-0.3,2.2-0.3l0.8,0.5c0.3,0.3,1.5,1.7,1.7,2.3
	c0.2,0.7-2-0.2-2.8-0.3c-1-0.2-2.3-1.2-2.3-1.2S319.6,58.1,320.4,57.6z M318.8,165c0.5-0.3,1.2-0.2,1.2-0.2l0.5,0.2l0.8,1.2
	c0,0.3-1-0.2-1.5-0.2s-1.2-0.7-1.2-0.7S318.3,165.2,318.8,165z M252.3,86.1c-0.5,0.3-0.8,0.5-1.5,1c-0.8,0.7-1.7,2.3-2.2,1.8
	c-0.7-0.5-0.3-2.3-0.3-2.3s0.5-1.3,1.2-2.7c0.8-1.3,1.8-1.3,1.8-1.3c1,0,2.8,0.7,2.8,2.2C254.3,86.2,253.1,85.6,252.3,86.1z
	 M265.9,91.2c0,0-0.7,0.2-0.8-1c-0.2-1.2,0.8-1.3,0.8-1.3s2-1,2,0.3C268,90.4,265.9,91.2,265.9,91.2z M283.6,68.7
	c0,0-2.2,3.5-5.1,4.8c-3,1.3-5,2-10.6,2.5c-0.8,0-0.5-0.5-0.5-0.5s6.5-1.8,10.1-3.8c2-1.2,4.3-2.7,5-3.3
	C284.8,66.4,283.6,68.7,283.6,68.7z M172.2,212.2c0,0.8-1,2.3-1.3,2.3c-0.3,0-1-1.5-0.8-2.3c0.2-0.8,0.3-3.2,1.7-2.8
	C172.7,209.6,172.2,211.4,172.2,212.2z M176.5,193.5c0,0-1.5,3.2-2,1.8c-0.5-1.2,0.5-3.3,0.5-3.3c1.3-1.2,1.8-2.8,2.5-2.2
	C178,190.5,176.5,193.5,176.5,193.5z M197.1,161.2c-1.5,1.7-6.1,10.4-7.1,9c-1-1.2,4.5-9.5,5.6-11.1c1.2-1.8,2.2-1.5,2.2-1.5
	l0.3,0.3C197.9,157.9,198.6,159.5,197.1,161.2z M209.5,148.1c0,0-3.3,0.7-2.8-0.5c0.7-1.2,3-1.7,3-1.7c1.8,0.3,2.2,0.5,2,1.3
	C211.8,148.1,209.5,148.1,209.5,148.1z M222.9,171.3c-1.5,1.5-2-0.5-4.1-3c-2.2-2.3-1.7-4.3-1.7-4.3h0.3l0.3,0.2l0.8,0.3l0.5,0.5
	l1.7,1.7C221.4,167.6,223.3,171,222.9,171.3z M197.2,220.9c-0.5,0-1-1-1-1s-1.3-2-1.8-3.5c-0.5-1.3-0.7-3.5-0.7-3.5
	s-0.3-2.8-0.3-3.8c0.2-1.3,0.2-2.5,0.3-3.2c0.2-0.7,0.8-0.5,0.8-0.5c1,0,1,0.8,1,0.8v0.5c0,0,0,3,0.2,5.3c0,0.7,1.8,8.1,1.8,8.1
	S197.9,220.9,197.2,220.9z M196.9,186.1c-1.2,1.8-2,1.8-2,1.8c0-0.2-0.3-0.8,0.7-2.8c1-2,2-1.8,2-1.8l0.3,0.3
	C197.9,183.6,198.1,184.2,196.9,186.1z M208.7,255.5c0.3-0.7,2.5,1,2.5,1c0.8,0.2,1.7,1.7,1.7,1.7s0.3,1.2-0.7,1.5
	c-1,0.5-1.7-0.5-1.7-0.5S208.3,256.2,208.7,255.5z M224.3,204.8c-2.3-0.5-7.3-4.3-9.3-5.3s-5.3-1.3-3.8-2.7c0.2-0.2,0.3-0.5,0.7-0.5
	c0.3,0,1.8,0.5,1.8,0.5l3.6,1.5c0.2,0,2,0.8,3.5,1.7c1.3,0.8,3.6,2.3,3.6,2.3l1,0.8C225.4,203.5,226.6,205.3,224.3,204.8z
	 M244.5,171.8c0,0-2.8,3.8-4.5,6.1c-2.2,3.2-4.8,8-5.3,7.5c-0.5-0.5,2.3-5.8,3.8-8.6c1.7-3.5,4.1-5.3,5.1-5.6
	C245.8,170.1,244.5,171.8,244.5,171.8z M235.5,337.8c0,0,0,0.7-1.2,1.5c-1.2,0.8-1.7,0.3-1.8,0.3c-0.2,0-1.3-0.7-1.3-1.3
	c0.2-0.7,2-1.2,2-1.2C236.4,336.9,235.5,337.8,235.5,337.8L235.5,337.8z M261.2,336.8c-1.2-0.2-1.3-0.5-1.2-0.7
	c0-0.2,0.3-0.5,1.7-0.5c1.3,0,1.3,0.7,1.3,0.7C263.1,336.8,262.6,336.9,261.2,336.8z M290.7,338.4c-2.5,0.7-3.5,0.3-5.6,0.5
	c-1.8,0.2-2.7,0.3-4.5,0.3c-3.2,0-3.5,0.2-8-1.2c-0.8-0.3-1.8-1.3-1.5-1.7c0.3-0.5,1-0.3,1-0.3s5.6,1,9.3,1.2c2.7,0.2,4,0.3,6.6,0.2
	c1.5,0,0.7-0.2,3-0.2C291.9,337.1,291.4,338.3,290.7,338.4z M306.5,333.8c-0.2,0.2-1.2,0.5-2,0.7c-1,0.2-0.5-0.7-0.5-0.7
	s0.7-1,1.5-1.5c1-0.5,1.5,0,1.5,0C307.3,332.9,306.7,333.6,306.5,333.8z M318.8,301.9c-1.2,2.5-1.5,3.3-1.7,5.6
	c-0.3,2.5,1.2,9.5-1.2,6.8c-0.8-1.2-1.7-6.6-1-9.3C316.1,299.1,320.9,297.5,318.8,301.9z M285.3,403.2c-1,0.7,1,2.7-2.2,2.5
	c-1.8-0.2-0.8-1.8-0.7-2l1.2-1.7c0.8-1.2,1.3-1.3,2.2-1.8c0.8-0.5,1.5,0.8,1.5,0.8s0.3,0.5,0.3,1.2
	C287.6,402.7,286.1,402.6,285.3,403.2z M302.7,386.5l-1.5,1.2c-0.2,0-1.2,0.8-1.5,0.3c-0.3-0.5,0.2-1.2,0.2-1.3s1-1.3,1.8-1.7
	c0.8-0.5,1.3,0,1.3,0C303.5,386.2,302.7,386.5,302.7,386.5L302.7,386.5z M310.5,96c0,0-0.7,2.2-2,2.7c-1.7,0.5-8,0.7-8.1,0.2
	c-0.2-0.5,7.3-1.2,10.1-4C311.1,94.2,310.5,96,310.5,96z M308.1,90.6c0.5-0.8,0.2,1.3,0.2,1.3s-0.5,2.2-1.7,2.8
	c-1.5,0.8-5.1,1.8-5.5,1.3C301.2,95.7,306,94.2,308.1,90.6z M297.9,65.7c0,0,0.7,0,1.7,0.5c1,0.7,1.7,2.7,1.7,2.7s0.2,0.3-0.7,0.3
	c-0.5,0-0.5-0.8-1-1.2c-0.7-0.5-1.2-0.7-2-1c-0.8-0.3-2,0.2-2.2-0.7C295.4,65.4,297.9,65.7,297.9,65.7z M290.2,71.2
	c0,0,0.3-1,1.8-1.8c1.3-0.8,3.2-0.8,3.2-0.8s1,0,2.2,0.8c1.2,0.8,2.2,3.6,2.2,3.6s0.3,1.8-0.5,2.5c-0.8,0.7-2.2-0.5-2.8-1.5
	c-0.8-1-1.3-1.3-2.5-1.7c-1.3-0.5-3.3,1-3.6,0C290.1,72,290.2,71.2,290.2,71.2z M289.7,94c-1,0.2-0.3-0.8-0.3-0.8s2.8-1.2,4.6-2.2
	c3-1.5,8.6-7.5,7.1-4.6c-0.7,1.3-2.7,3-2.7,3s-2.3,3.3-2.8,3.8C293.6,94.9,290.9,93.9,289.7,94L289.7,94z M266.4,158.4l0.2-0.3
	c0,0,5-3.3,12.8-2.3c4.6,0.7,9.1,4.8,8.5,5.3c-0.7,0.5-1.7,0-2,0l-1.7-0.8l-2.5-0.7c0,0-4.5-1-7.8-0.8s-6.3,1.3-6.3,1.3
	s-1.3,0.7-1.7-0.2C265.7,158.9,266.4,158.4,266.4,158.4z M278.6,251.7c-11.4-8.8-25.4-26.7-23.7-28.4c1.5-1.3,7.1,7,15.6,16.1
	c9,9.6,19.4,18.7,19.7,19.9C290.9,261.3,282.9,255,278.6,251.7L278.6,251.7z M304.7,127.9c-4.8,8.3-11.4,14.6-11.4,14.6
	c-2.3,1.7-0.8-1.3-0.8-1.3s6.5-9,9.5-15.3c2.2-4.5,3.5-10.4,4.5-11.6C308.6,111.4,307.5,122.9,304.7,127.9z M317.9,218.7
	c-5-6-8.6-12.4-9.8-20.6c-0.3-1.8-0.3-4.5,1.3-4.1c1.5,0.2,1.3,3,1.3,3.6c0.5,4.8,2.5,9.6,6.1,15.4c5.1,8.1,13.4,14.4,13.1,14.9
	C329.2,228.8,320.9,222.4,317.9,218.7z M319.4,373.7c-2.8,2.7-7.6,6.3-7.6,6.3h-0.7v-0.8l0.2-0.3l0.3-0.5l0.3-0.5l0.3-0.5l1-1.2
	l2.3-2.2l2.3-2.2l3.6-3.6c0,0,1.3-1.5,1.8-1.8s0.8-0.7,1.3-1c0.7-0.3,1.5-0.8,1.8-0.5v0.7C326.7,366.1,322.4,370.9,319.4,373.7
	L319.4,373.7z M329.7,251c-2.2,1.5-3,1.3-4.3,2.8c-1.5,1.8-2,8-3.5,5.5c-1.5-2.5-0.5-6,2-8.6C326.9,247.2,333.3,248.4,329.7,251z
	 M337.5,360.1c1-0.3,1.5-0.2,1.5-0.2l0.3,0.7c0,0.2-1.3,2-2,2c-0.8-0.2-0.5-1.2-0.5-1.2S336.5,360.5,337.5,360.1L337.5,360.1z
	 M365.8,292.7c-1.5-1,0.8-4,0.8-6.5c0-2-0.3-3.5-0.3-5.1s1.7-2.2,1.7-2.2c0.3,0,1,0.3,1.8,2C370.7,282.5,368.5,294.3,365.8,292.7z
	 M416.6,245.2c-0.3,7-0.7,11.9-4.8,17.2c-5,6.5-13.6,13.1-11.8,7.8c1.2-3.2,8.8-7.1,11.8-15.9c1.7-5.3,2-10.3,2-10.3l-0.3-10.1
	c0,0-0.2-0.8-0.2-2c0.5-1.3,1.2-0.3,1.2-0.3l0.3,0.5C414.8,232.5,416.7,240.3,416.6,245.2z"/>
</svg>
