<svg width="1052" height="844" viewBox="0 0 1052 844" fill="none" xmlns="http://www.w3.org/2000/svg">
<path d="M804.785 597.327C938.675 545.985 1005.81 396.381 954.729 263.179C903.65 129.976 753.703 63.6145 619.813 114.957C485.922 166.299 418.79 315.902 469.869 449.105C520.948 582.308 670.894 648.669 804.785 597.327Z" fill="#FAEA10"/>
<path d="M466.79 274.253C471.751 261.128 476.129 247.712 481.814 234.94C489.695 217.238 500.444 201.291 512.454 186.28C523.783 172.117 536.387 159.198 550.963 148.55C562.147 140.379 573.574 132.236 585.881 126C601.403 118.133 617.512 110.93 634.159 105.84C649.719 101.078 666.191 98.6786 682.478 96.6552C700.482 94.42 718.798 95.3022 736.939 97.8721C756.484 100.639 775.781 104.985 794.245 112.81C804.443 117.133 814.6 121.585 824.645 126.277C828.821 128.228 832.662 130.97 837.087 133.721C835.221 139.916 833.317 145.948 830.562 151.524C822.588 167.627 814.489 183.68 806.01 199.5C800.439 209.889 793.695 219.605 788.255 230.06C781.49 243.049 780.126 257.858 776.844 272.075C771.409 295.62 775.218 318.593 780.058 341.815C782.445 353.279 784.272 364.845 786.205 376.385C787.993 387.055 789.6 397.751 791.237 408.447C791.407 409.548 791.697 411.186 791.134 411.745C785.644 417.202 785.411 424.843 783.476 431.75C780.482 442.432 776.619 452.546 767.262 459.139C763.8 461.579 761.982 464.543 764.221 468.779C766.457 473.01 770.156 473.013 774.08 472.085C784.482 469.619 791.617 462.647 798.06 454.681C798.762 453.81 799.598 453.049 800.373 452.234C800.875 452.639 801.374 453.05 801.876 453.455C798.67 458.087 796.204 463.638 792.028 467.073C788.522 469.962 786.43 472.435 787.604 476.825C788.51 480.224 793.939 482.616 798.225 481.52C812.658 477.831 822.36 468.764 827.063 454.441C829.03 448.453 830.494 442.274 832.205 436.122C843.008 443.13 854.95 443.238 866.089 436.389C875.231 430.766 884.92 427.688 895.983 429.592C900.88 430.435 905.887 431.378 910.757 431.166C914.66 430.994 919.158 430.104 922.133 427.852C932.559 419.959 933.547 407.891 928.476 399.064C929.95 394.852 932.399 391.491 931.91 388.524C930.784 381.672 927.027 376.049 920.105 373.208C917.663 372.204 915.041 371.076 913.159 369.29C909.249 365.576 905.78 361.379 901.435 356.622C913.751 353.58 925.983 350.558 938.714 347.418C938.625 349.094 938.696 350.071 938.513 350.992C936.858 359.291 934.523 367.491 933.709 375.902C933.208 381.102 933.44 387.602 936.09 391.794C942.96 402.676 950.565 413.346 961.856 420.337C960.344 427.163 959.233 434.125 957.225 440.779C954.751 448.984 951.948 457.136 948.571 464.967C935.296 495.732 917.035 522.91 893.281 546.182C877.656 561.492 860.554 574.764 841.113 584.686C827.967 591.393 814.668 598.11 800.739 602.927C780.653 609.872 759.71 614.04 738.229 615.388C709.861 617.168 681.755 614.493 654.06 606.668C643.779 603.764 633.707 599.93 623.656 596.171C605.533 589.394 588.908 579.533 572.847 568.589C571.758 567.847 570.697 567.059 569.194 565.927C569.1 560.061 569.362 554.561 569.782 549.08C571.282 529.489 562.856 515.622 545.569 506.54C541.983 504.655 538.929 501.67 535.119 498.813C539.294 496.714 542.936 495.672 545.55 493.414C552.61 487.318 561.412 485.118 569.755 481.864C569.744 481.863 569.73 481.852 569.835 482.198C568.397 491.653 569.544 501.305 565.497 509.938C564.901 511.207 565.039 512.907 565.046 514.417C565.077 523.244 569.216 527.98 577.881 528.977C579.513 535.869 583.472 541.213 589.581 544.873C598.287 550.087 608.845 548.582 615.523 540.356C625.609 527.922 636.676 517.861 653.7 515.863C664.092 514.643 670.978 507.604 674.294 497.419C674.586 496.53 674.181 495.382 674.038 493.657C679.022 497.177 682.108 499.255 685.094 501.475C691.772 506.445 699.101 509.732 707.214 510.801C716.609 512.039 725.432 510.586 733.126 505.027C736.152 502.838 737.786 499.715 736.09 495.821C734.432 492.008 731.285 491.548 727.405 491.327C722.442 491.049 717.508 489.288 712.742 487.84C713.017 487.279 713.112 487.046 713.558 486.796C723.965 488.285 733.844 488.417 743.038 483.72C746.618 481.891 749.542 479.278 748.301 474.679C747.039 469.988 743.209 469.073 739.095 469.579C731.92 470.462 725.111 468.925 718.774 465.402C711.678 461.462 705.221 455.348 697.761 453.281C688.292 450.661 685.77 442.938 680.711 436.67C665.757 418.141 653.555 397.817 641.362 377.49C623.817 348.248 598.102 328.586 568.622 314.083C555.868 307.811 541.653 304.743 528.046 300.434C506.844 293.717 486.302 285.34 466.779 274.277L466.79 274.253Z" fill="#FAEA10"/>
<path d="M461.626 277.068C481.624 288.257 502.315 296.706 523.671 303.48C537.378 307.826 551.696 310.92 564.543 317.246C594.237 331.873 620.139 351.703 637.812 381.194C650.094 401.695 662.379 422.189 677.447 440.88C682.543 447.201 685.084 454.99 694.621 457.632C702.141 459.715 708.642 465.877 715.787 469.857C722.17 473.41 729.028 474.96 736.256 474.069C740.4 473.559 744.26 474.487 745.529 479.212C746.774 483.853 743.835 486.491 740.228 488.332C730.967 493.068 721.016 492.935 710.289 491.289C709.138 491.128 708.58 491.091 707.798 490.949C707.358 490.941 707.15 491.045 706.94 491.145C707.2 491.341 707.464 491.535 707.877 491.968C708.529 492.41 709.031 492.615 709.533 492.82C714.514 493.952 719.482 495.723 724.481 496.004C728.394 496.225 731.559 496.69 733.23 500.536C734.935 504.458 733.291 507.613 730.244 509.82C722.495 515.431 713.606 516.892 704.143 515.643C695.966 514.566 688.589 511.25 681.862 506.238C678.855 503.999 675.749 501.897 670.726 498.353C670.865 500.094 671.273 501.252 670.984 502.147C667.644 512.419 660.707 519.519 650.239 520.749C633.096 522.762 621.946 532.916 611.785 545.451C605.063 553.745 594.43 555.268 585.654 550.006C579.501 546.315 575.513 540.925 573.869 533.975C565.137 532.971 560.972 528.193 560.941 519.29C560.933 517.767 560.799 516.051 561.395 514.773C565.471 506.066 564.318 496.336 565.951 486.674C565.897 486.044 565.768 485.882 565.638 485.721C565.653 485.967 565.675 486.216 565.694 486.46C557.279 489.737 548.413 491.955 541.301 498.103C538.668 500.381 534.999 501.431 530.794 503.548C534.628 506.431 537.708 509.44 541.32 511.342C558.735 520.506 567.22 534.486 565.71 554.244C565.286 559.772 565.022 565.32 564.758 571.202C560.459 579.185 556.372 581.525 545.12 582.688C544.505 595.618 533.443 599.662 525.415 606.337C519.659 611.122 513.615 615.549 507.858 620.33C502.889 624.453 497.51 627.036 490.881 624.84C483.282 622.32 474.905 621.664 468.895 615.124C467.999 614.149 467.341 612.807 466.277 612.179C464.842 611.332 462.859 610.215 461.558 610.603C450.697 613.837 449.382 613.464 441.438 604C438.348 600.319 435.129 596.749 431.896 593.195C427.627 588.503 427.499 582.736 432.662 579.521C439.661 575.161 447.265 571.769 454.807 567.861C453.521 552.995 466.012 552.999 475.833 549.872C470.938 548.053 466.324 546.343 461.755 544.643C461.03 549.068 458.579 552.43 454.241 553.538C442.921 556.43 431.521 559.042 420.116 561.615C412.06 563.435 403.812 564.587 395.905 566.855C391.823 568.029 388.443 571.331 384.477 573.06C378.58 575.633 372.446 577.665 367.67 579.456C366.975 583.241 366.969 586.232 365.869 588.689C362.281 596.72 360.182 604.754 360.32 614.009C360.404 619.536 356.75 625.39 353.665 630.353C347.32 640.556 341.52 651.666 330.486 657.44C323.643 661.023 316.12 664.074 308.511 665.313C295.351 667.453 286.879 674.536 281.486 686.338C277.35 695.382 273.252 704.642 263.893 709.373C256.801 712.955 249.572 716.458 241.083 716.852C239.53 721.729 237.785 727.113 236.098 732.517C232.982 742.479 224.627 745.119 215.893 747.429C210.148 748.949 204.099 748.27 199.077 753.619C192.977 760.117 175.761 753.988 172.122 745.369C168.186 736.043 167.49 726.404 170.061 717.203C171.568 711.808 175.307 707.244 173.477 700.919C173.158 699.807 174.423 698.095 175.259 696.885C179.003 691.454 182.809 686.063 186.683 680.729C192.95 672.103 201.478 670.966 210.655 677.535C212.754 679.039 214.678 680.798 216.861 682.58C221.214 675.851 220.79 668.407 220.305 660.975C220.005 656.389 219.709 651.797 219.171 647.227C217.621 634.033 228.19 625.403 238.678 623.924C246.132 622.875 250.624 619.324 252.517 612.075C253.643 607.768 251.294 604.952 248.373 602.44C241.747 596.739 236.668 589.787 234.253 581.49C232.292 574.753 231.77 567.629 230.631 560.799C226.124 564.209 221.438 568.131 216.388 571.504C196.448 584.822 168.529 586.32 147.265 568.846C142.227 564.705 138.282 558.534 135.239 552.586C123.825 530.27 126.778 508.256 135.435 486.573C138.215 479.616 140.896 472.612 143.494 465.582C144.026 464.139 144.011 462.467 144.358 460.151C139.795 461.862 135.999 463.379 132.143 464.715C116.806 470.036 101.788 461.62 93.5639 446.739C89.7461 439.828 86.0159 432.869 82.2158 425.951C79.1718 420.417 81.2157 414.213 86.5341 413.509C87.8963 413.328 89.8858 413.815 90.8363 414.774C97.972 421.957 106.461 420.981 114.603 419.286C129.529 416.18 144.056 416.411 158.542 422.798C173.898 429.562 182.155 449.375 176.886 464.109C172.148 477.348 165.455 489.784 160.072 502.777C156.664 511.008 155.431 519.876 157.924 528.852C161.258 540.852 171.783 545.935 183.83 544.558C199.981 542.713 209.832 531.615 218.766 519.45C229.43 504.933 239.433 489.856 250.82 475.964C259.395 465.502 270.235 457.405 283.027 452.125C290.244 449.147 295.834 444.444 298.957 436.21C305.77 418.26 317.419 403.494 333.775 394.11C339.902 390.596 342.231 386.157 345.001 380.729C354.451 362.194 366.807 346.109 383.763 334.082C384.419 333.616 385.232 333.254 386.027 333.118C393.596 331.816 395.556 325.696 397.436 319.412C402.821 301.436 413.649 288.021 429.225 278.138C439.755 271.457 450.276 272.577 461.628 277.035L461.626 277.068ZM700.758 509.319C714.27 512.092 726.841 508.762 727.839 501.509C712.658 504.354 701.924 495.459 691.279 486.273C681.003 477.405 670.647 468.646 658.004 463.435C657.197 463.103 656.576 462.256 655.866 461.651C655.879 461.153 655.894 460.66 655.903 460.164C658.692 459.826 661.514 459.014 664.268 459.287C667.036 459.555 669.696 461.179 672.481 461.687C674.599 462.073 677.722 462.496 678.771 461.347C679.934 460.077 679.966 456.788 679.226 454.837C677.907 451.357 675.875 448.055 673.728 444.975C665.571 433.273 656.509 422.136 649.141 409.97C633.238 383.695 617.692 357.733 591.377 339.83C576.768 329.892 562.267 320.915 545.498 315.887C520.539 308.399 495.535 301.016 472.119 288.717C466.551 285.792 460.762 283.223 454.882 281.096C447.591 278.455 440.274 278.572 433.567 282.524C420.162 290.429 409.696 301.512 404.927 316.498C401.358 327.715 395.67 334.94 385.65 341.188C367.896 352.255 356.373 369.596 348.168 389.179C347.005 391.954 345.144 395.321 342.686 396.426C323.56 405.056 311.97 420.712 304.113 439.536C300.986 447.022 296.536 452.429 289.429 455.519C273.31 462.539 259.878 473.081 249.307 487.097C240.299 499.037 231.945 511.488 223.246 523.669C213.941 536.702 202.873 547.328 186.389 550.321C166.357 553.958 150.918 540.828 150.844 520.023C150.807 509.576 153.91 500.059 158.371 490.909C162.695 482.046 167.436 473.3 170.692 463.993C176.413 447.638 167.771 431.482 151.109 426.299C139.944 422.824 128.661 422.378 117.379 424.915C106.977 427.258 96.6998 427.861 86.5672 419.217C87.3685 421.701 87.6713 423.329 88.3947 424.746C91.2053 430.267 93.938 435.849 97.0815 441.183C108.774 461.035 119.203 464.449 139.835 455.433C145.89 452.785 151.033 456.478 149.944 463.2C149.201 467.81 147.368 472.246 145.664 476.608C140.398 490.056 134.406 503.361 133.837 518.21C133.032 539.392 138.811 558.262 158.647 569.402C175.552 578.898 192.918 577.583 209.076 568.693C215.915 564.933 221.532 559.004 227.908 554.348C229.732 553.013 232.301 552.061 234.491 552.204C235.358 552.262 236.372 555.731 236.868 557.747C237.308 559.543 237.187 561.476 237.213 563.343C237.414 577.164 241.928 589.01 252.699 598.427C259.263 604.166 260.089 609.367 257.169 617.279C254.524 624.437 249.361 628.077 242.102 629.457C228.003 632.143 224.318 637.662 225.397 652.359C225.994 660.478 226.079 668.678 225.564 676.758C225.358 680.029 223.686 683.917 221.364 686.041C216.558 690.439 213.979 695.679 212.614 701.954C211.521 706.957 209.737 711.464 204.862 714.231C203.024 715.272 201.241 718.163 201.214 720.297C201.133 726.725 201.759 733.207 202.53 739.63C202.681 740.884 204.749 742.956 205.9 742.975C221.118 743.247 230.915 735.614 233.686 720.69C237.168 701.918 244.142 684.521 251.271 667.144C254.084 660.296 258.304 654.445 264.82 651.042C276.968 644.688 289.476 639.007 301.596 632.595C306.78 629.849 312.469 626.903 316.017 622.448C331.299 603.225 339.614 581.991 330.282 556.068C327.282 547.744 325.675 538.877 324.125 530.156C323.289 525.472 324.796 520.995 329.808 516.971C330.108 519.874 330.527 521.473 330.39 523.003C328.801 540.656 336.221 555.262 346.757 568.783C350.46 573.535 355.246 575.18 361.12 574.325C370.496 572.964 378.524 568.648 387.036 564.958C398.264 560.093 410.757 558.014 422.764 554.943C432.393 552.48 442.212 550.671 451.736 547.902C456.836 546.419 457.151 542.337 452.997 538.703C451.072 537.019 448.799 535.758 446.743 534.221C443.407 531.728 443.083 528.84 445.629 525.006C447.148 526.288 448.292 527.521 449.66 528.366C457.464 533.158 465.221 538.063 473.23 542.458C475.424 543.66 478.445 543.161 481.072 543.561C483.978 544.002 486.937 544.329 489.763 545.147C493.613 546.257 497.449 547.566 501.127 549.197C503.945 550.447 507.461 551.703 509.014 554.057C514.378 562.203 511.51 578.186 503.833 583.503C498.694 587.061 493.063 589.948 487.461 592.767C483.66 594.686 480.71 593.589 477.407 589.962C472.646 584.726 466.805 580.456 461.171 576.119C459.751 575.026 457.027 574.39 455.52 575.003C449.263 577.553 443.127 580.447 437.195 583.657C434.317 585.219 434.309 587.66 437.062 590.251C439.798 592.822 442.162 595.816 444.618 598.686C451.8 607.062 451.813 607.147 461.634 603.747C464.9 602.617 467.305 602.905 469.226 606.327C472.274 611.755 476.956 614.896 482.925 616.187C485.551 616.755 488.145 617.617 490.675 618.588C495.639 620.491 499.745 619.287 503.666 616.134C513.062 608.578 522.551 601.134 532.07 593.737C538.921 588.415 539.935 584.925 537.658 576.136C536.686 572.39 535.686 568.297 536.193 564.626C537.777 553.104 533.76 544.013 525.562 536.012C520.58 531.148 516.076 525.779 511.356 520.637C511.708 520.123 512.058 519.614 512.412 519.104C516.936 521.843 521.425 524.648 525.999 527.306C533.971 531.942 538.545 538.878 539.835 547.933C540.871 555.189 541.835 562.468 542.446 569.753C543.029 576.681 544.779 577.996 550.922 575.882C557.928 573.47 560.68 568.19 560.512 561.101C560.349 554.309 559.718 547.503 559.174 540.713C558.591 533.422 555.091 527.892 549.123 523.57C540.955 517.656 532.981 511.459 525.024 505.24C521.837 502.749 519.417 502.812 516.888 505.926C514.209 509.227 511.2 512.243 508.327 515.387C502.89 510.021 503.238 509.445 507.299 504.745C510.348 501.221 513.452 496.968 514.434 492.489C518.081 475.847 519.075 458.957 513.44 442.072C512.135 438.162 510.511 434.345 509.406 430.387C509.012 428.967 509.718 427.27 509.925 425.698C511.43 426.466 513.275 426.907 514.355 428.08C515.58 429.403 516.535 431.305 516.89 433.081C519.073 443.945 521.206 454.828 523.014 465.749C523.708 469.93 524.578 472.524 529.304 470.165C530.188 469.724 531.432 470.007 533.761 469.894C532.232 472.229 531.304 473.647 530.376 475.064C526.965 480.282 523.311 485.348 520.3 490.809C519.403 492.435 519.502 496.199 520.609 497.116C522.237 498.456 525.528 499.021 527.493 498.305C532.105 496.617 536.33 493.927 540.759 491.731C545.885 489.19 551.014 486.654 556.222 484.281C560.435 482.366 564.725 480.658 566.429 476.154C559.694 468.685 557.833 460.128 556.503 451.398C557.257 451.052 558.006 450.709 558.761 450.368C561.781 456.02 564.795 461.67 567.814 467.323C568.316 467.345 568.817 467.367 569.314 467.39C571.26 462.828 573.203 458.26 575.149 453.698C575.64 453.823 576.13 453.944 576.621 454.069C577.085 455.253 578.039 456.505 577.927 457.606C577.459 462.27 576.898 466.943 575.956 471.512C574.15 480.254 571.208 488.819 570.432 497.673C570.001 502.574 569.617 507.128 568.058 511.808C566.847 515.445 566.592 519.835 567.271 523.692C568.114 528.472 571.337 528.942 574.578 525.456C576.172 523.741 577.998 522.254 579.722 520.664C580.133 520.961 580.546 521.262 580.957 521.559C580.596 522.906 580 524.225 579.919 525.598C579.736 528.566 579.12 531.749 579.923 534.51C581.833 541.067 586.275 545.447 593.023 546.939C599.472 548.364 604.473 545.97 608.37 541.032C618.345 528.398 629.429 517.75 646.664 515.986C657.809 514.848 664.33 507.752 667.144 496.917C668.637 491.161 669.517 491.188 674.542 494.311C682.898 499.499 691.535 504.199 700.753 509.332L700.758 509.319ZM320.654 656.47C324.512 653.959 329.288 652.221 332.046 648.785C339.486 639.509 346.154 629.573 352.9 619.733C354.045 618.067 354.706 615.527 354.48 613.473C353.396 603.544 355.748 594.692 360.589 586.369C362.574 582.956 360.764 581.464 357.245 581.105C354.301 580.804 351.153 580.731 348.5 579.55C343.839 577.475 341.487 578.111 341.298 583.409C340.723 599.592 332.589 612.138 324.019 624.481C319.672 630.746 313.842 635.198 306.533 637.76C296.841 641.163 287.093 644.515 277.742 648.697C272.914 650.859 267.922 653.963 264.685 658.045C253.456 672.198 248.87 689.968 242.07 706.514C241.056 708.981 242.309 711.232 245.375 710.355C255.524 707.457 265.383 703.959 270.832 693.793C273.828 688.202 276.541 682.434 279.719 676.959C283.849 669.841 289.546 664.312 297.604 662.067C304.939 660.024 312.431 658.515 320.656 656.475L320.654 656.47ZM460.75 564.731C467.796 567.059 471.971 572.368 475.332 578.774C476.481 580.965 478.468 582.858 480.399 584.477C484.186 587.656 488.174 587.408 491.894 584.635C495.31 582.085 498.628 579.404 501.958 576.739C506.504 573.105 506.623 569.159 502.783 564.6C500.957 562.432 499.345 559.917 498.242 557.31C495.773 551.493 493.57 550.373 487.713 552.255C482.06 554.076 476.166 555.269 470.69 557.49C467.037 558.97 463.942 561.767 460.75 564.731ZM196.479 728.853C196.43 719.747 195.441 718.288 186.643 714.356C180.728 711.713 177.216 712.941 175.913 719.26C174.914 724.098 174.723 729.339 175.261 734.313C176.728 747.915 179.501 749.985 192.664 749.291C196.343 749.097 197.653 747.473 197.351 743.879C196.952 739.142 196.726 734.392 196.479 728.853ZM194.001 710.171C200.883 710.5 205.28 707.315 207.462 700.776C208.307 698.241 209.406 695.784 210.576 693.39C212.372 689.701 212.746 686.483 208.721 683.645C202.04 678.93 197.233 678.011 193.885 682.067C189.054 687.916 184.7 694.189 180.389 700.467C178.226 703.622 179.332 706.443 182.991 707.661C186.317 708.768 189.802 709.312 193.996 710.172L194.001 710.171ZM712.286 474.442C704.044 469.416 695.802 464.389 687.327 459.219C686.168 461.305 685.298 462.896 684.411 464.471C681.094 470.355 681.154 471.182 686.707 475.224C699.918 484.837 714.488 488.545 730.155 486.036C733.765 485.459 737.098 483.37 740.555 481.974C740.412 481.157 740.268 480.336 740.121 479.52C730.551 480.838 721.509 479.174 712.29 474.441L712.286 474.442Z" fill="#FEF9F8"/>
<path d="M700.29 509.151C691.426 504.137 682.793 499.441 674.442 494.256C669.418 491.135 668.541 491.113 667.047 496.861C664.234 507.687 657.711 514.78 646.577 515.915C629.349 517.678 618.271 528.318 608.3 540.943C604.405 545.877 599.406 548.269 592.961 546.845C586.216 545.355 581.776 540.977 579.867 534.426C579.064 531.667 579.68 528.486 579.863 525.52C579.944 524.148 580.537 522.825 580.9 521.484C580.489 521.187 580.077 520.886 579.666 520.59C577.947 522.177 576.12 523.669 574.525 525.378C571.28 528.863 568.063 528.392 567.22 523.615C566.542 519.762 566.797 515.375 568.007 511.741C569.566 507.064 569.949 502.514 570.38 497.616C571.156 488.768 574.098 480.214 575.901 471.474C576.843 466.909 577.404 462.24 577.871 457.579C577.983 456.479 577.03 455.227 576.566 454.044C576.075 453.919 575.586 453.799 575.095 453.674C573.15 458.233 571.207 462.797 569.263 467.356C568.762 467.334 568.26 467.312 567.764 467.289C564.745 461.64 561.733 455.995 558.715 450.346C557.966 450.689 557.213 451.035 556.458 451.375C557.789 460.104 559.648 468.65 566.379 476.113C564.676 480.613 560.388 482.32 556.177 484.234C550.969 486.6 545.843 489.135 540.721 491.679C536.294 493.873 532.078 496.564 527.461 498.248C525.497 498.963 522.208 498.399 520.58 497.06C519.472 496.15 519.377 492.386 520.272 490.757C523.279 485.307 526.935 480.242 530.343 475.024C531.271 473.608 532.198 472.191 533.726 469.858C531.398 469.971 530.155 469.688 529.271 470.129C524.542 472.483 523.674 469.895 522.984 465.716C521.173 454.805 519.041 443.93 516.864 433.072C516.508 431.298 515.554 429.397 514.33 428.075C513.248 426.909 511.406 426.462 509.902 425.695C509.695 427.266 508.989 428.961 509.383 430.38C510.486 434.331 512.111 438.15 513.415 442.057C519.05 458.922 518.054 475.806 514.409 492.436C513.427 496.912 510.323 501.157 507.277 504.682C503.218 509.379 502.87 509.955 508.304 515.316C511.176 512.175 514.184 509.162 516.862 505.863C519.388 502.747 521.808 502.688 524.994 505.177C532.943 511.393 540.917 517.584 549.081 523.494C555.047 527.812 558.543 533.334 559.127 540.623C559.673 547.414 560.302 554.21 560.465 560.997C560.638 568.079 557.883 573.356 550.879 575.767C544.744 577.878 542.99 576.565 542.408 569.642C541.797 562.362 540.829 555.091 539.797 547.838C538.509 538.79 533.936 531.859 525.968 527.227C521.401 524.57 516.914 521.767 512.387 519.031C512.038 519.539 511.686 520.053 511.332 520.563C516.05 525.701 520.553 531.07 525.531 535.927C533.724 543.917 537.739 553.001 536.157 564.519C535.651 568.188 536.655 572.275 537.621 576.021C539.898 584.803 538.884 588.291 532.036 593.609C522.522 601 513.037 608.439 503.646 615.988C499.727 619.139 495.623 620.343 490.661 618.441C488.134 617.475 485.541 616.614 482.914 616.042C476.948 614.752 472.267 611.608 469.222 606.189C467.301 602.77 464.898 602.482 461.633 603.611C451.817 607.008 451.806 606.928 444.626 598.554C442.17 595.686 439.808 592.694 437.073 590.125C434.321 587.536 434.325 585.098 437.206 583.536C443.137 580.322 449.271 577.431 455.522 574.888C457.029 574.276 459.758 574.914 461.17 576.004C466.801 580.338 472.64 584.604 477.399 589.836C480.7 593.461 483.645 594.558 487.448 592.64C493.046 589.818 498.676 586.937 503.813 583.382C511.486 578.069 514.353 562.098 508.992 553.958C507.441 551.611 503.926 550.355 501.108 549.101C497.43 547.467 493.597 546.164 489.749 545.055C486.925 544.238 483.967 543.911 481.062 543.47C478.432 543.072 475.413 543.57 473.224 542.368C465.214 537.977 457.466 533.075 449.665 528.286C448.294 527.444 447.15 526.211 445.636 524.929C443.093 528.765 443.415 531.646 446.749 534.137C448.804 535.672 451.078 536.937 453.001 538.616C457.153 542.247 456.838 546.326 451.741 547.807C442.219 550.57 432.402 552.384 422.782 554.843C410.78 557.912 398.293 559.989 387.071 564.851C378.562 568.538 370.541 572.845 361.167 574.211C355.291 575.067 350.513 573.426 346.81 568.673C336.286 555.165 328.87 540.57 330.451 522.927C330.588 521.398 330.168 519.796 329.87 516.9C324.86 520.921 323.354 525.394 324.189 530.075C325.742 538.787 327.349 547.648 330.343 555.968C339.671 581.871 331.364 603.088 316.085 622.298C312.543 626.748 306.852 629.694 301.671 632.438C289.563 638.847 277.059 644.52 264.912 650.871C258.4 654.276 254.181 660.117 251.37 666.961C244.242 684.32 237.273 701.709 233.792 720.467C231.023 735.38 221.231 743.007 206.019 742.736C204.869 742.716 202.8 740.641 202.651 739.393C201.881 732.975 201.255 726.497 201.336 720.074C201.363 717.942 203.145 715.053 204.982 714.013C209.855 711.248 211.636 706.75 212.73 701.745C214.1 695.473 216.677 690.236 221.476 685.844C223.797 683.721 225.464 679.837 225.674 676.568C226.19 668.494 226.1 660.301 225.507 652.187C224.429 637.501 228.112 631.986 242.205 629.302C249.459 627.919 254.625 624.284 257.265 617.133C260.187 609.226 259.358 604.03 252.796 598.294C242.03 588.885 237.519 577.048 237.318 563.238C237.292 561.372 237.413 559.44 236.973 557.645C236.478 555.63 235.464 552.164 234.598 552.107C232.408 551.963 229.841 552.915 228.017 554.248C221.64 558.903 216.028 564.821 209.195 568.583C193.042 577.462 175.686 578.781 158.789 569.291C138.961 558.155 133.184 539.299 133.99 518.137C134.554 503.297 140.549 490.004 145.812 476.567C147.517 472.213 149.343 467.777 150.09 463.169C151.178 456.452 146.036 452.768 139.986 455.408C119.364 464.417 108.939 461.005 97.2524 441.168C94.1104 435.839 91.3789 430.261 88.5697 424.743C87.8466 423.327 87.5484 421.699 86.7431 419.219C96.8709 427.856 107.143 427.254 117.541 424.912C128.82 422.371 140.095 422.823 151.254 426.295C167.908 431.474 176.542 447.62 170.828 463.961C167.574 473.261 162.835 482.001 158.513 490.857C154.048 499.998 150.953 509.51 150.99 519.949C151.064 540.739 166.499 553.857 186.518 550.225C202.994 547.234 214.056 536.616 223.357 523.593C232.052 511.421 240.407 498.978 249.406 487.048C259.976 473.041 273.398 462.508 289.51 455.493C296.611 452.401 301.061 447.003 304.186 439.522C312.042 420.717 323.626 405.072 342.741 396.445C345.196 395.336 347.056 391.971 348.22 389.203C356.421 369.634 367.939 352.306 385.685 341.247C395.7 335.004 401.388 327.789 404.953 316.576C409.72 301.601 420.181 290.527 433.579 282.628C440.282 278.674 447.597 278.562 454.885 281.201C460.762 283.326 466.548 285.893 472.113 288.816C495.518 301.106 520.515 308.481 545.458 315.966C562.215 320.991 576.709 329.962 591.315 339.891C617.618 357.78 633.163 383.726 649.053 409.978C656.412 422.137 665.475 433.264 673.627 444.957C675.776 448.04 677.806 451.339 679.123 454.812C679.862 456.762 679.831 460.048 678.668 461.318C677.618 462.46 674.498 462.042 672.381 461.657C669.601 461.148 666.939 459.526 664.172 459.259C661.419 458.986 658.601 459.802 655.811 460.135C655.798 460.632 655.785 461.13 655.774 461.621C656.483 462.225 657.1 463.073 657.911 463.403C670.546 468.606 680.899 477.364 691.17 486.225C701.816 495.406 712.546 504.295 727.713 501.449C726.716 508.697 714.15 512.024 700.295 509.138L700.29 509.151ZM612.642 430.465C616.782 439.712 620.925 448.953 625.309 458.743C629.913 448.974 626.904 440.125 622.311 431.2C624.167 432.784 625.475 434.499 626.477 436.382C628.976 441.083 631.218 445.917 633.832 450.549C634.463 451.664 636.127 452.204 637.319 453.004C637.93 451.596 639.347 449.99 639.024 448.817C636.425 439.317 633.097 430.211 624.003 424.624C616.455 419.987 609.096 415.028 601.573 410.339C599.088 408.793 596.369 407.663 593.758 406.342C593.674 409.119 593.205 411.936 593.578 414.662C594.724 423.046 596.037 431.419 597.648 439.733C597.993 441.506 599.84 443.03 600.995 444.666C601.814 440.241 601.321 436.292 601.85 432.525C602.239 429.749 603.967 427.215 605.1 424.574C607.433 426.314 609.768 428.058 612.654 430.456L612.642 430.465ZM469.596 349.225C481.479 353.222 492.574 358.316 499.268 370.242C500.013 371.571 502.427 371.976 504.07 372.812C504.004 371.076 504.466 369.106 503.787 367.647C500.505 360.588 495.112 355.243 488.626 351.345C480.034 346.182 471.197 341.42 462.286 336.87C459.873 335.637 456.698 335.156 454.083 335.533C452.213 335.804 450.694 338.082 449.015 339.461C450.463 341.171 451.619 343.729 453.42 344.422C458.441 346.359 463.727 347.522 469.596 349.225ZM624.04 505.385C628.72 507.54 631.799 505.07 633.871 501.522C636.194 497.539 633.658 491.877 628.367 488.201C624.695 493.046 621.914 498.139 624.04 505.385Z" fill="#E4202A"/>
<path d="M319.978 656.276C312.151 658.168 304.658 659.677 297.326 661.718C289.267 663.964 283.569 669.495 279.438 676.614C276.26 682.091 273.551 687.859 270.55 693.453C265.1 703.621 255.24 707.12 245.089 710.019C242.018 710.898 240.769 708.644 241.783 706.176C248.584 689.627 253.171 671.852 264.402 657.696C267.64 653.613 272.632 650.508 277.461 648.346C286.814 644.162 296.563 640.81 306.257 637.405C313.56 634.84 319.394 630.391 323.746 624.123C332.315 611.772 340.452 599.227 341.027 583.041C341.216 577.741 343.569 577.105 348.23 579.181C350.883 580.362 354.032 580.435 356.976 580.736C360.498 581.099 362.304 582.593 360.321 586.001C355.484 594.324 353.132 603.179 354.211 613.112C354.436 615.162 353.772 617.709 352.631 619.374C345.884 629.216 339.215 639.154 331.774 648.433C329.015 651.87 324.238 653.609 319.981 656.27L319.978 656.276Z" fill="#E4212B"/>
<path d="M459.362 561.762C462.622 559.189 465.707 556.405 469.346 554.927C474.8 552.717 480.678 551.524 486.314 549.715C492.157 547.84 494.348 548.957 496.809 554.748C497.909 557.343 499.514 559.843 501.335 562.005C505.163 566.544 505.044 570.472 500.514 574.09C497.194 576.742 493.888 579.416 490.481 581.95C486.774 584.711 482.799 584.958 479.024 581.793C477.099 580.181 475.118 578.297 473.973 576.116C470.624 569.738 466.462 564.453 459.362 561.762Z" fill="#E5232D"/>
<path d="M191.183 729.585C191.454 734.672 191.678 739.372 192.073 744.06C192.372 747.616 191.074 749.218 187.433 749.415C174.402 750.106 171.654 748.054 170.202 734.594C169.672 729.666 169.862 724.484 170.847 719.7C172.139 713.451 175.61 712.233 181.471 714.847C190.182 718.737 191.16 720.177 191.179 729.587L191.183 729.585Z" fill="#E5242E"/>
<path d="M189.132 710.739C185.339 709.918 181.861 709.372 178.546 708.273C174.897 707.06 173.792 704.245 175.95 701.107C180.248 694.859 184.593 688.603 189.41 682.776C192.75 678.736 197.538 679.649 204.207 684.349C208.221 687.176 207.848 690.382 206.057 694.056C204.891 696.442 203.794 698.89 202.951 701.415C200.775 707.929 196.39 711.102 189.139 710.741L189.132 710.739Z" fill="#E4222C"/>
<path d="M713.663 469.392C722.526 473.949 731.544 475.611 741.087 474.298C741.23 475.112 741.374 475.931 741.52 476.743C738.071 478.128 734.754 480.212 731.15 480.789C715.53 483.286 701.001 479.593 687.823 470.019C682.285 465.993 682.227 465.174 685.533 459.308C686.417 457.739 687.285 456.155 688.44 454.077C696.892 459.227 705.111 464.233 713.658 469.394L713.663 469.392Z" fill="#E5262F"/>
<path d="M710.401 487.037C709.723 487.166 709.228 486.96 708.655 486.351C708.584 485.951 708.728 485.61 708.728 485.61C709.277 485.644 709.833 485.681 710.628 485.863C710.776 486.24 710.681 486.474 710.401 487.037Z" fill="#FAEA10"/>
<path d="M708.504 486.143C708.163 486.114 707.904 485.918 707.64 485.724C707.85 485.625 708.057 485.521 708.496 485.529C708.726 485.636 708.586 485.976 708.504 486.143Z" fill="#FAEA10"/>
<path d="M566.053 483.605C566.045 483.366 566.025 483.125 566.009 482.877C566.136 483.036 566.263 483.195 566.212 483.473C566.029 483.594 566.045 483.598 566.053 483.605Z" fill="#FAEA10"/>
<path d="M613.953 427.24C611.37 425.191 609.062 423.469 606.752 421.743C605.631 424.356 603.925 426.862 603.536 429.611C603.011 433.333 603.503 437.239 602.69 441.624C601.548 440.004 599.72 438.496 599.379 436.742C597.79 428.514 596.484 420.227 595.352 411.936C594.983 409.239 595.446 406.447 595.531 403.704C598.114 405.012 600.809 406.132 603.263 407.659C610.703 412.294 617.991 417.203 625.454 421.793C634.452 427.321 637.744 436.331 640.316 445.73C640.635 446.891 639.235 448.484 638.629 449.873C637.453 449.079 635.802 448.547 635.179 447.444C632.592 442.861 630.373 438.073 627.902 433.426C626.912 431.568 625.618 429.871 623.78 428.299C628.324 437.13 631.301 445.885 626.746 455.551C622.403 445.862 618.308 436.717 613.94 427.245L613.953 427.24Z" fill="#FEF5F6"/>
<path d="M471.78 349.679C466.297 348.106 461.051 346.953 456.062 345.034C454.28 344.345 453.132 341.808 451.691 340.113C453.355 338.742 454.863 336.483 456.72 336.218C459.316 335.844 462.463 336.323 464.863 337.544C473.708 342.057 482.477 346.775 491.007 351.899C497.445 355.765 502.793 361.067 506.055 368.066C506.729 369.513 506.271 371.467 506.337 373.188C504.708 372.364 502.312 371.963 501.57 370.64C494.924 358.808 483.914 353.761 471.78 349.679Z" fill="#FEF6F7"/>
<path d="M624.262 500.96C622.386 494.075 625.145 489.03 628.794 484.223C634.047 487.868 636.566 493.488 634.258 497.435C632.201 500.955 629.144 503.404 624.262 500.96Z" fill="#FEF3F4"/>
</svg>
